<?xml version="1.0" standalone="no"?>
<!DOCTYPE svg PUBLIC "-//W3C//DTD SVG 20010904//EN"
 "http://www.w3.org/TR/2001/REC-SVG-20010904/DTD/svg10.dtd">
<svg version="1.0" xmlns="http://www.w3.org/2000/svg"
 width="862.000000pt" height="1280.000000pt" viewBox="0 0 862.000000 1280.000000"
 preserveAspectRatio="xMidYMid meet">
<metadata>
Created by potrace 1.15, written by Peter Selinger 2001-2017
</metadata>
<g transform="translate(0.000000,1280.000000) scale(0.100000,-0.100000)"
fill="#000000" stroke="none">
<path d="M1590 12794 c-181 -14 -396 -58 -493 -102 -82 -38 -103 -65 -112
-146 -7 -66 5 -107 39 -135 12 -10 10 -25 -20 -114 -59 -175 -76 -297 -55
-390 6 -23 27 -57 53 -85 37 -40 46 -57 52 -100 11 -88 -10 -202 -79 -427
-125 -402 -189 -840 -189 -1275 0 -236 1 -253 37 -466 85 -508 44 -633 -384
-1161 -110 -136 -127 -162 -74 -113 33 31 31 26 -23 -50 -155 -220 -231 -403
-253 -605 -5 -44 -13 -1095 -19 -2335 -6 -1240 -14 -2480 -19 -2755 l-8 -500
-3 365 c-1 201 -4 376 -5 390 -2 14 -4 74 -6 133 -1 59 -6 104 -10 100 -4 -4
-9 -352 -10 -773 -2 -728 -2 -774 19 -955 12 -104 31 -284 42 -400 19 -196 22
-214 53 -280 36 -74 101 -153 170 -206 l42 -33 -45 49 c-42 45 -40 44 41 -21
254 -203 607 -327 1094 -386 168 -20 665 -17 835 5 352 46 576 109 803 223
229 115 393 275 438 427 5 18 21 160 34 317 13 157 30 332 36 390 14 125 13
5431 -1 5950 -10 347 -18 413 -75 565 -23 61 -31 93 -24 100 7 7 8 5 4 -6 -4
-10 0 -16 9 -16 12 0 7 16 -20 66 -47 90 -134 209 -289 398 -170 206 -218 269
-266 351 -22 37 -44 67 -51 67 -6 0 -13 7 -15 15 -4 13 -3 13 6 0 20 -28 12
12 -10 50 -19 32 -19 30 -3 -17 5 -15 4 -16 -5 -3 -6 8 -23 51 -37 95 -35 108
-43 267 -20 419 18 117 31 157 22 66 -9 -84 32 128 49 258 19 144 19 282 0
502 -39 441 -79 657 -225 1215 -27 104 -31 134 -28 222 l3 102 49 50 48 49 6
90 c5 102 -11 191 -63 339 -32 92 -32 93 -12 110 11 10 26 32 33 49 18 43 1
147 -30 176 -56 53 -216 105 -416 134 -102 15 -502 26 -620 18z m1227 -3166
c-3 -8 -6 -5 -6 6 -1 11 2 17 5 13 3 -3 4 -12 1 -19z m-10 -65 c-3 -10 -5 -4
-5 12 0 17 2 24 5 18 2 -7 2 -21 0 -30z"/>
<path d="M2782 9395 c0 -16 2 -22 5 -12 2 9 2 23 0 30 -3 6 -5 -1 -5 -18z"/>
<path d="M2773 9275 c0 -38 2 -53 4 -32 2 20 2 52 0 70 -2 17 -4 1 -4 -38z"/>
<path d="M2791 9044 c0 -11 3 -14 6 -6 3 7 2 16 -1 19 -3 4 -6 -2 -5 -13z"/>
<path d="M6295 9039 c-376 -23 -703 -74 -956 -149 -127 -38 -154 -82 -169
-278 -6 -70 -16 -212 -24 -317 -31 -400 -41 -684 -41 -1180 0 -559 9 -697 66
-1089 79 -543 179 -928 499 -1911 250 -767 340 -1205 340 -1655 0 -278 -53
-646 -113 -782 -32 -71 -105 -185 -162 -252 -284 -333 -333 -394 -378 -471
-19 -33 -58 -91 -85 -128 -113 -152 -105 -271 24 -407 189 -199 592 -340 1149
-402 148 -17 687 -16 830 0 563 67 968 208 1149 402 126 135 130 288 9 422
-22 24 -50 65 -62 91 -35 73 -147 216 -398 506 -96 111 -170 256 -198 391 -97
461 -86 919 35 1456 50 223 122 470 275 944 216 670 292 933 365 1265 145 660
188 1201 161 2040 -15 455 -15 465 -35 725 -29 377 -45 513 -65 540 -79 111
-509 201 -1146 240 -187 12 -868 11 -1070 -1z"/>
<path d="M2811 8974 c0 -11 3 -14 6 -6 3 7 2 16 -1 19 -3 4 -6 -2 -5 -13z"/>
<path d="M3562 890 c0 -14 2 -19 5 -12 2 6 2 18 0 25 -3 6 -5 1 -5 -13z"/>
<path d="M3553 770 c0 -25 2 -35 4 -22 2 12 2 32 0 45 -2 12 -4 2 -4 -23z"/>
</g>
</svg>
