<?xml version="1.0" standalone="no"?>
<!DOCTYPE svg PUBLIC "-//W3C//DTD SVG 20010904//EN"
 "http://www.w3.org/TR/2001/REC-SVG-20010904/DTD/svg10.dtd">
<svg version="1.0" xmlns="http://www.w3.org/2000/svg"
 width="1280.000000pt" height="833.000000pt" viewBox="0 0 1280.000000 833.000000"
 preserveAspectRatio="xMidYMid meet">
<metadata>
Created by potrace 1.15, written by Peter Selinger 2001-2017
</metadata>
<g transform="translate(0.000000,833.000000) scale(0.100000,-0.100000)"
fill="#000000" stroke="none">
<path d="M10269 8235 l-4 -60 -65 0 c-36 0 -70 -4 -76 -8 -7 -4 -15 0 -18 9
-5 14 -9 14 -23 3 -15 -13 -15 -12 -3 10 l12 24 -33 -24 c-32 -22 -43 -24
-162 -24 -98 0 -126 3 -122 13 3 9 -7 11 -41 8 l-45 -3 22 23 c30 32 15 31
-23 -1 -16 -14 -40 -25 -54 -25 -20 0 -24 5 -25 33 l-1 32 -9 -32 c-9 -31 -13
-33 -52 -33 -37 0 -89 -18 -62 -21 14 -1 -115 -28 -140 -28 -14 -1 -16 2 -7 8
8 5 -11 7 -47 7 -34 -1 -61 0 -61 1 0 2 18 10 40 19 69 28 38 25 -81 -6 -63
-16 -116 -30 -119 -30 -3 0 9 12 25 26 l30 25 -50 -26 c-49 -25 -98 -36 -65
-15 20 13 8 13 -27 -1 -18 -7 -61 -8 -123 -3 -74 6 -88 9 -65 15 20 5 4 7 -44
5 -74 -4 -74 -3 -45 13 20 11 53 16 109 15 47 0 71 2 60 7 -40 15 -172 9 -237
-11 -74 -23 -71 -23 -63 -10 9 14 -8 13 -23 -2 -9 -9 -12 -7 -12 9 0 11 7 26
15 33 8 7 15 18 15 24 0 6 -14 -4 -30 -21 -16 -18 -33 -33 -36 -33 -4 0 -4 21
-1 47 5 44 4 46 -9 23 -7 -14 -13 -37 -14 -52 l0 -28 -32 20 c-18 11 -37 20
-43 20 -5 0 8 -11 30 -23 67 -38 54 -51 -55 -58 -52 -3 -97 -4 -98 -3 -2 1 9
9 25 18 15 8 24 15 18 16 -5 0 -26 -10 -45 -21 l-35 -21 30 33 c36 40 7 21
-54 -35 -42 -39 -47 -35 -12 9 9 12 4 9 -14 -6 -67 -59 -78 -62 -233 -70 -81
-4 -175 -14 -210 -23 -34 -9 -67 -14 -72 -11 -5 3 -20 1 -32 -6 -22 -11 -22
-11 2 16 25 27 24 27 -47 -9 -82 -41 -91 -43 -72 -19 10 13 4 11 -23 -6 -21
-12 -43 -19 -48 -16 -6 4 -21 -1 -32 -12 -14 -12 -19 -13 -13 -3 7 12 5 12
-11 -1 -19 -17 -78 -49 -89 -49 -3 0 -3 4 0 10 3 5 -13 3 -36 -5 -23 -9 -57
-17 -76 -19 -19 -3 -42 -11 -51 -18 -13 -11 -14 -11 -8 0 5 8 29 27 54 43 25
16 40 29 34 29 -17 0 -90 -37 -127 -64 -49 -37 -62 -41 -40 -16 l20 24 -30
-22 c-16 -12 -43 -32 -60 -44 l-30 -22 20 24 c11 14 26 31 34 38 28 23 -5 12
-53 -18 -26 -17 -51 -28 -56 -25 -4 3 -15 -7 -25 -21 -9 -14 -19 -23 -23 -20
-3 4 -16 37 -29 74 -12 37 -20 56 -18 42 16 -73 17 -127 4 -128 -23 -2 -43 -7
-56 -15 -17 -11 -16 3 2 46 24 58 16 67 -10 11 -14 -28 -36 -61 -51 -74 l-25
-25 10 28 c15 40 6 33 -23 -18 -27 -45 -43 -60 -32 -27 4 9 -8 0 -26 -20 -33
-37 -138 -99 -109 -64 13 15 12 16 -13 7 -14 -6 -41 -18 -59 -28 -31 -17 -57
-25 -57 -18 0 2 17 20 38 41 30 29 18 24 -56 -27 -150 -103 -139 -97 -122 -74
12 16 10 16 -11 -2 -25 -23 -45 -31 -35 -15 3 5 -39 -14 -92 -41 -78 -40 -93
-45 -77 -26 l20 23 -25 -15 c-14 -9 -52 -28 -85 -42 -50 -22 -56 -24 -36 -7
35 30 21 25 -89 -30 -106 -53 -115 -57 -104 -38 4 6 -10 -1 -32 -17 l-39 -29
24 27 c31 35 24 34 -36 -3 -53 -33 -223 -90 -188 -63 19 15 19 15 -5 8 -14 -4
-46 -18 -72 -31 -54 -27 -62 -29 -52 -11 4 6 -4 2 -18 -10 -29 -27 -46 -30
-27 -5 8 9 -5 0 -28 -20 -49 -43 -119 -81 -134 -73 -5 4 -18 1 -27 -6 -9 -7
-3 2 13 21 l30 34 -48 -38 c-26 -21 -47 -35 -47 -30 0 4 -5 3 -12 -4 -15 -15
-32 -16 -22 -1 10 16 -29 -6 -46 -25 -13 -16 -35 -23 -26 -8 3 5 1 30 -3 58
-5 27 -9 38 -10 24 -2 -40 -67 -119 -98 -120 -7 0 -24 -12 -39 -27 l-27 -27
-9 24 c-7 19 -11 21 -18 11 -6 -11 -10 -7 -13 15 -4 27 -5 28 -12 7 -4 -13
-11 -21 -15 -18 -5 3 -11 -4 -15 -15 -14 -43 -65 -69 -65 -32 -1 13 -6 10 -25
-13 -19 -23 -25 -26 -25 -12 0 13 -7 10 -30 -15 -24 -27 -32 -30 -39 -19 -7
12 -15 8 -40 -17 -17 -17 -31 -27 -31 -24 0 4 -10 -4 -21 -18 l-21 -25 6 30
c6 28 6 29 -9 10 -33 -45 -37 -48 -46 -33 -7 10 -9 8 -9 -6 0 -19 -1 -19 -13
-2 -11 15 -12 11 -9 -26 l4 -43 -22 20 -23 20 7 -21 c7 -21 6 -21 -40 2 -62
31 -90 31 -39 -1 34 -21 37 -24 17 -25 -13 0 -21 -4 -18 -8 3 -5 -29 -14 -69
-21 -82 -13 -103 -27 -53 -34 18 -2 4 -5 -32 -6 -36 -1 -71 -5 -79 -10 -8 -5
3 -7 31 -4 41 5 97 -11 85 -24 -3 -2 -15 1 -28 7 -19 11 -21 10 -17 -7 5 -19
-15 -47 -26 -36 -3 4 -6 -4 -6 -16 0 -12 -4 -19 -10 -16 -6 3 -7 -1 -4 -10 6
-14 1 -15 -32 -10 -37 6 -38 5 -15 -8 24 -14 24 -14 -15 -22 -21 -4 -33 -10
-26 -12 16 -6 16 -23 -1 -23 -7 0 -30 -14 -51 -32 -36 -29 -66 -44 -66 -32 0
3 7 19 15 37 15 30 15 31 -1 12 -9 -11 -31 -51 -50 -90 -19 -40 -34 -61 -34
-50 -1 13 -10 2 -25 -30 l-24 -50 5 40 c4 30 3 36 -5 25 -6 -8 -11 -25 -11
-37 0 -28 -17 -39 -23 -16 -3 11 -5 6 -7 -12 l-2 -30 -19 40 c-18 36 -20 37
-15 10 l6 -30 -21 35 c-11 19 -18 27 -15 18 20 -68 17 -181 -5 -147 -7 11 -9
10 -9 -6 0 -16 -2 -17 -9 -6 -7 11 -12 3 -22 -27 -7 -23 -19 -48 -28 -55 -12
-10 -14 -9 -7 3 4 8 0 6 -8 -4 -21 -26 -20 -11 4 59 11 32 18 60 16 62 -4 5
-73 -158 -82 -194 -5 -19 -9 -21 -15 -11 -6 9 -9 7 -9 -9 0 -12 -4 -25 -10
-28 -5 -3 -10 1 -10 9 0 33 -29 15 -35 -21 -13 -77 -25 -100 -70 -132 -25 -18
-50 -41 -55 -52 -6 -10 -15 -19 -20 -19 -14 0 -12 31 5 81 13 38 13 41 0 25
-8 -10 -29 -62 -47 -115 -27 -81 -33 -92 -39 -71 -7 24 -7 24 -8 -6 -1 -16
-15 -52 -32 -80 -28 -43 -33 -47 -40 -29 -4 11 -8 43 -9 70 -5 108 -18 110
-19 2 -1 -100 -17 -177 -37 -177 -4 0 -4 28 -2 63 6 60 5 61 -7 27 -16 -41
-19 -20 -5 29 16 58 3 46 -16 -14 -18 -56 -18 -56 -35 -34 -10 13 -20 48 -24
78 -4 30 -11 64 -16 75 -7 16 -8 11 -4 -19 5 -37 3 -34 -29 33 -19 39 -37 72
-41 72 -3 0 4 -18 15 -40 24 -48 25 -57 3 -39 -15 13 -15 12 -4 -10 11 -19 15
-21 23 -10 8 11 9 10 4 -3 -3 -10 3 -33 14 -51 22 -37 23 -71 7 -211 -9 -79
-14 -93 -40 -120 -29 -30 -29 -30 -22 -6 4 14 14 38 22 54 10 19 11 26 3 21
-7 -4 -31 -46 -53 -94 -31 -67 -42 -81 -47 -66 -5 14 -8 9 -14 -24 -8 -55 -36
-121 -43 -102 -3 8 -13 -2 -24 -25 -10 -22 -17 -30 -15 -19 3 11 7 40 10 65 5
37 2 32 -17 -30 -13 -41 -33 -90 -45 -109 l-21 -34 -7 53 -7 53 -24 -83 c-30
-105 -45 -133 -107 -202 -28 -31 -69 -85 -90 -120 -35 -57 -38 -60 -32 -28 4
19 20 58 37 85 l31 50 -41 -39 c-28 -27 -49 -62 -68 -110 -14 -39 -31 -75 -36
-81 -7 -7 -8 -4 -4 8 9 25 -2 21 -14 -5 -7 -18 -8 -12 -4 25 6 65 -1 59 -15
-10 -15 -80 -31 -112 -25 -53 l5 45 -15 -45 c-8 -25 -17 -58 -20 -73 -3 -15
-10 -25 -15 -22 -6 4 -10 -6 -10 -22 -1 -26 -29 -91 -30 -68 0 6 -5 3 -10 -5
-7 -12 -10 -8 -11 15 -1 40 -7 22 -23 -66 l-14 -74 -2 60 c-2 40 -5 50 -8 30
l-5 -30 -8 25 c-5 15 -6 -1 -3 -40 l5 -65 -38 108 c-41 118 -57 130 -24 19 13
-41 21 -95 20 -133 l-1 -64 -13 45 c-7 25 -14 38 -15 30 0 -8 -12 9 -25 38
-13 28 -26 52 -29 52 -3 0 4 -20 15 -45 25 -57 37 -145 19 -145 -9 0 -10 -11
-6 -38 6 -32 5 -34 -6 -17 -7 11 -18 40 -25 65 -13 45 -13 44 -8 -30 3 -43 1
-81 -5 -90 -8 -12 -10 -9 -11 15 -1 29 -1 29 -9 5 l-7 -25 -5 30 c-3 17 -4 8
-2 -20 3 -48 -12 -150 -16 -110 -1 15 -4 11 -11 -11 -9 -32 -30 -45 -94 -59
-16 -3 -61 -21 -100 -40 -230 -110 -306 -149 -316 -162 -7 -8 -31 -24 -53 -35
-23 -11 -61 -34 -86 -51 -112 -77 -258 -146 -315 -148 -30 -2 -29 -2 5 -9 l35
-6 -40 -8 c-22 -4 -62 -15 -88 -24 -37 -13 -44 -18 -30 -23 12 -5 7 -8 -18 -8
-27 -1 -46 -10 -70 -33 -19 -17 -26 -29 -17 -25 10 3 18 3 18 -2 0 -4 -15 -13
-32 -19 -23 -7 -27 -10 -13 -11 13 -1 -1 -11 -35 -28 -30 -14 -58 -30 -61 -35
-3 -4 -25 -14 -50 -22 l-44 -14 45 -2 c38 -2 41 -3 20 -10 -14 -4 -18 -9 -10
-10 8 -1 -3 -7 -25 -14 -37 -12 -38 -13 -16 -20 30 -10 11 -25 -34 -27 -29 -1
-30 -1 -5 -9 24 -8 24 -8 3 -9 -13 -1 -23 -5 -23 -11 0 -5 -11 -12 -25 -16
-14 -3 -23 -10 -20 -14 3 -5 -7 -13 -22 -18 -22 -8 -24 -11 -8 -12 11 0 -8
-13 -43 -27 -35 -14 -61 -27 -59 -29 2 -3 20 3 40 11 48 20 47 11 0 -14 -45
-24 -37 -27 14 -6 54 23 51 11 -6 -24 -66 -40 -65 -49 0 -15 28 14 54 23 57
20 3 -3 1 -6 -4 -6 -5 0 -20 -9 -34 -20 l-25 -19 25 6 c23 6 24 5 10 -12 -13
-17 -10 -16 21 3 46 28 58 28 28 1 l-24 -21 35 19 c45 25 69 19 43 -9 -18 -21
-18 -21 12 -6 17 9 41 19 55 23 l25 7 -25 -28 c-14 -16 -18 -23 -9 -16 9 7 21
12 25 10 5 -1 20 3 34 10 l25 13 -25 -23 c-14 -13 -37 -31 -50 -41 -21 -16
-20 -16 11 1 20 11 49 27 65 37 28 17 29 17 9 -1 -12 -11 -27 -28 -35 -38 -13
-17 -11 -17 29 3 23 12 50 20 58 17 8 -3 24 -1 36 6 57 32 61 15 7 -37 -57
-55 -41 -56 24 -1 55 46 80 60 55 29 -13 -15 -12 -15 8 -5 12 7 25 17 28 22 8
13 55 13 55 1 0 -5 -15 -21 -32 -35 -38 -30 -29 -35 10 -8 15 10 34 23 42 27
13 8 13 7 1 -8 -19 -24 2 -21 24 3 20 22 24 23 44 11 11 -7 8 -20 -18 -65 -38
-65 -36 -73 4 -16 15 22 30 38 33 35 3 -3 15 4 26 14 17 16 28 18 56 12 31 -6
35 -10 33 -37 -3 -27 -1 -26 22 16 15 26 23 34 19 20 -5 -21 -2 -20 22 12 36
46 45 48 33 6 -14 -49 -3 -45 17 7 10 28 20 42 24 34 5 -8 12 -4 20 12 24 45
55 53 46 12 -5 -26 -5 -26 11 5 18 34 43 43 43 15 0 -11 10 -3 26 22 24 39 25
39 20 10 l-6 -30 16 29 17 30 12 -30 12 -29 8 25 c5 14 9 29 10 33 0 5 11 15
25 23 l25 15 -25 -6 -25 -6 25 20 c14 11 22 23 18 27 -4 4 -14 1 -23 -6 -9 -7
-18 -11 -21 -8 -2 3 20 22 50 43 58 39 86 75 43 55 -12 -6 -2 7 23 29 45 41
47 50 7 30 -20 -9 -20 -9 -4 4 9 8 17 19 17 24 0 6 10 18 22 27 13 9 16 14 8
11 -8 -3 -6 1 6 10 11 8 36 29 54 45 28 25 30 30 14 31 -14 0 -15 2 -4 6 8 3
42 19 75 35 33 17 85 38 116 48 61 19 135 66 251 158 40 33 84 64 98 71 21 10
20 8 -5 -11 -16 -12 -52 -43 -80 -68 -123 -113 -203 -170 -237 -170 -14 0
-109 -48 -118 -59 -3 -4 -16 -12 -30 -18 -14 -7 -18 -12 -10 -12 9 -1 -8 -23
-40 -52 -30 -28 -48 -48 -40 -43 8 4 4 -5 -9 -19 -14 -15 -21 -27 -16 -27 5 0
0 -7 -11 -16 -18 -14 -18 -15 4 -4 39 19 35 6 -8 -29 -45 -36 -54 -61 -12 -34
27 17 27 17 12 -2 -8 -11 -26 -29 -40 -40 -13 -11 -36 -31 -50 -44 l-25 -23
27 16 c32 19 49 3 18 -16 -27 -17 -26 -31 3 -18 21 11 21 11 -2 -8 -16 -13
-20 -21 -12 -26 6 -4 16 -4 21 -1 6 3 10 2 10 -4 0 -6 -9 -15 -21 -21 -11 -7
-18 -14 -15 -17 3 -3 24 6 46 21 56 37 50 14 -13 -46 -49 -47 -50 -50 -17 -33
l35 17 -34 -36 c-19 -20 -30 -36 -25 -36 6 0 14 3 18 7 3 4 13 8 22 9 11 2 8
-7 -11 -32 -29 -38 -28 -39 12 -23 25 9 22 4 -22 -40 -49 -51 -52 -68 -5 -31
34 27 48 25 24 -2 -49 -56 -49 -57 -5 -54 35 3 39 1 31 -14 -5 -9 -16 -22 -24
-30 -9 -7 -16 -17 -16 -23 0 -6 11 0 24 12 l23 22 -2 -26 c-4 -27 5 -26 43 8
27 25 26 27 2 -52 -11 -35 -18 -66 -15 -69 3 -3 5 0 5 7 0 7 5 9 12 5 8 -5 9
-2 5 9 -3 9 -2 16 3 14 5 -1 16 7 25 18 15 18 15 17 0 -15 l-16 -35 19 22 20
23 -2 -24 c0 -13 -5 -22 -10 -18 -5 3 -6 0 -2 -7 4 -6 2 -18 -4 -26 -26 -32 6
-13 48 28 39 36 42 38 26 12 l-18 -30 28 25 29 25 -13 -25 -13 -25 22 20 22
19 -6 -29 -6 -30 16 25 15 25 -6 -30 c-4 -25 -2 -23 15 12 22 47 36 59 21 17
-14 -36 -12 -42 5 -19 9 10 26 20 39 21 18 1 22 -4 19 -20 -3 -20 -3 -19 8 2
13 24 39 30 39 10 1 -7 8 1 18 17 l16 30 6 -35 6 -35 7 33 c7 36 27 35 27 -1
1 -21 2 -21 21 6 11 15 29 27 39 27 10 0 22 5 25 10 4 6 10 8 15 5 4 -3 24 2
44 10 47 20 81 20 46 0 -24 -14 -24 -14 15 -9 l40 4 -40 -20 -40 -20 35 7 c19
3 44 7 55 9 11 1 34 5 50 9 l30 7 -30 -21 c-16 -11 -40 -21 -53 -21 -13 0 -36
-7 -52 -15 -17 -9 -30 -12 -30 -8 0 4 -5 2 -12 -5 -7 -7 -20 -12 -30 -12 -10
0 -28 -15 -39 -32 -19 -30 -20 -31 -15 -7 8 38 -22 34 -33 -5 l-9 -31 -1 40
-2 40 -14 -27 c-10 -17 -22 -26 -34 -23 -24 4 -26 -35 -5 -136 13 -70 13 -83
-2 -149 -9 -40 -14 -87 -11 -105 10 -60 -18 -224 -44 -260 -5 -6 -10 -22 -13
-35 -3 -14 -19 -65 -36 -114 -17 -48 -29 -91 -26 -93 3 -3 -3 -22 -13 -42 -21
-43 -53 -147 -79 -256 -21 -86 -37 -134 -59 -177 -8 -15 -13 -33 -12 -40 2 -7
-5 -37 -14 -67 -9 -30 -17 -56 -17 -58 0 -2 10 -3 23 -3 12 0 31 -6 42 -13 11
-7 54 -27 95 -45 66 -27 89 -31 190 -35 63 -2 126 -10 140 -16 24 -11 24 -11
-5 -4 -16 3 -82 7 -145 8 -105 1 -121 4 -185 32 -38 18 -82 35 -98 38 -15 4
-30 11 -33 16 -6 10 -64 12 -88 3 -30 -11 -16 -23 42 -35 69 -15 45 -24 -29
-11 -49 9 -55 8 -86 -17 -69 -55 -25 -146 85 -172 39 -10 60 -25 122 -89 96
-99 104 -103 193 -95 52 5 89 2 133 -9 119 -31 256 -16 335 36 50 34 81 101
74 160 -6 45 -5 48 46 105 29 32 59 62 68 66 9 4 28 25 42 45 49 68 138 162
144 151 4 -5 -9 -30 -29 -54 -20 -24 -36 -48 -36 -54 0 -5 -6 -14 -13 -18 -7
-4 -23 -25 -36 -45 -12 -21 -28 -41 -35 -45 -18 -12 -106 -123 -107 -136 -5
-47 10 -87 32 -87 11 0 28 -4 38 -9 9 -5 23 -6 31 -1 8 5 22 2 37 -7 19 -12
23 -13 23 -2 1 10 5 8 14 -4 10 -12 16 -15 21 -7 5 8 11 8 21 -1 8 -6 14 -8
14 -3 0 5 5 2 10 -6 7 -11 10 -11 10 -2 0 7 5 10 10 7 6 -3 10 1 10 9 0 19 11
20 29 4 11 -11 12 -8 7 12 -7 24 -6 24 9 -2 19 -35 29 -36 21 -4 -3 14 -2 28
4 31 5 3 10 15 10 25 0 13 17 26 53 43 49 24 107 69 107 85 0 18 136 61 195
62 49 1 156 26 164 38 3 5 29 19 56 32 28 12 44 24 36 27 -7 3 28 25 78 49 96
45 119 63 50 39 -49 -18 -62 -19 -54 -5 3 6 -1 13 -11 17 -13 5 -11 8 12 19
l29 13 -27 -5 c-47 -10 -31 2 32 26 57 21 99 51 51 35 -21 -6 88 101 139 138
l25 18 -25 -12 c-36 -16 75 95 126 126 23 14 49 34 59 45 18 20 18 20 -21 5
l-39 -16 25 21 c70 58 95 77 138 103 26 16 39 26 30 23 -30 -9 -20 12 20 40
20 16 42 32 47 37 14 13 -35 -12 -67 -35 -16 -11 -28 -17 -28 -14 0 3 51 43
114 90 94 70 113 89 109 106 -3 11 -1 20 3 20 5 0 25 14 44 31 23 20 27 26 12
19 l-23 -11 17 28 c10 15 34 45 53 67 31 33 33 37 11 26 -15 -7 -5 6 26 36 29
27 61 70 72 95 11 26 25 50 31 53 6 4 20 26 31 50 10 23 26 48 34 55 9 8 13
18 10 23 -3 5 5 21 17 35 13 15 18 23 12 19 -35 -20 0 37 61 103 37 39 39 43
16 37 -24 -7 -25 -7 -5 9 11 9 19 20 18 25 -1 5 23 32 55 61 51 47 53 51 19
31 -42 -24 -40 -18 10 45 22 27 29 43 20 46 -8 3 -1 16 20 38 18 19 32 38 31
43 0 5 34 39 77 75 43 36 90 82 104 101 l25 35 -29 -25 c-32 -28 -27 -18 30
53 42 53 196 183 171 144 -9 -13 -45 -47 -81 -75 -35 -29 -70 -62 -76 -75 -8
-15 2 -9 31 18 48 45 41 29 -27 -65 -34 -48 -39 -58 -18 -40 l28 25 -26 -40
c-15 -22 -61 -71 -102 -109 -42 -37 -74 -71 -71 -73 3 -3 -10 -24 -29 -47
l-34 -42 37 2 c40 3 106 22 82 23 -29 2 12 19 62 26 26 4 48 10 48 15 0 4 54
10 120 14 98 6 131 12 178 33 31 15 59 29 62 33 3 4 47 28 98 54 79 40 92 50
92 71 0 14 -4 25 -8 25 -7 0 -36 108 -37 140 0 9 -11 16 -27 18 -16 2 -28 7
-28 11 0 9 -11 12 -73 15 -45 3 -73 11 -44 14 71 5 117 1 117 -11 0 -5 11 -6
24 -3 20 5 26 1 36 -27 6 -17 18 -47 26 -65 8 -18 14 -39 14 -47 0 -8 5 -15
10 -15 6 0 10 -11 10 -24 0 -14 4 -27 9 -30 5 -3 21 -40 36 -81 16 -42 36 -80
47 -86 10 -5 18 -6 18 -2 0 4 10 -12 22 -37 12 -25 28 -49 35 -53 23 -14 64
-110 70 -164 3 -29 9 -53 14 -53 4 0 4 -13 -2 -28 -7 -19 -6 -38 1 -56 5 -15
10 -50 10 -77 0 -35 4 -51 15 -55 8 -4 15 -12 15 -19 0 -8 8 -21 17 -31 9 -9
18 -28 19 -43 2 -14 7 -47 12 -73 5 -26 8 -60 6 -75 -2 -16 -1 -22 2 -15 8 17
34 -31 34 -62 0 -12 9 -46 21 -76 45 -118 59 -174 51 -205 -5 -16 -7 -86 -6
-155 2 -105 -1 -131 -17 -163 -22 -45 -24 -60 -4 -33 13 18 14 14 11 -41 -2
-34 -7 -66 -10 -72 -4 -6 -8 -37 -10 -69 -1 -31 -10 -72 -20 -90 -9 -18 -14
-37 -11 -42 3 -5 1 -19 -5 -30 -7 -13 -7 -20 -1 -20 6 0 -3 -23 -20 -51 -21
-37 -25 -50 -14 -45 17 6 15 1 -17 -46 -11 -16 -16 -28 -13 -28 4 0 -3 -12
-14 -26 -22 -28 -28 -50 -12 -39 24 14 17 -16 -14 -62 -38 -57 -102 -116 -156
-143 -55 -29 -64 -45 -40 -69 29 -29 130 -30 148 -2 7 10 57 54 113 96 109 84
120 97 120 147 1 18 7 46 13 62 12 26 12 21 9 -45 -2 -41 -9 -80 -15 -87 -5
-7 -47 -38 -91 -69 -112 -78 -136 -101 -136 -135 0 -20 8 -31 29 -43 47 -24
168 -38 276 -32 104 6 162 21 224 60 38 23 76 39 153 63 42 14 49 20 59 55 7
21 16 39 21 39 8 0 5 23 -9 74 -4 13 -1 16 8 11 9 -6 11 -3 6 10 -27 68 -29
107 -13 190 20 99 45 189 52 182 3 -2 -7 -48 -21 -102 -24 -94 -35 -195 -15
-150 8 18 9 17 9 -8 1 -46 29 -86 84 -120 71 -45 102 -57 142 -57 32 0 35 3
35 29 0 16 -19 61 -41 101 -33 57 -42 84 -47 136 -6 74 17 229 29 198 7 -17 8
-16 8 6 1 38 -22 97 -49 125 -20 21 -21 25 -6 19 15 -6 14 -1 -8 32 -28 42
-50 133 -39 161 6 15 4 16 -9 5 -13 -10 -16 -9 -21 9 -3 12 1 35 8 50 8 15 12
36 8 45 -4 12 -3 15 6 10 8 -6 10 -1 6 17 -4 14 -1 35 5 47 9 17 9 21 0 15 -9
-6 -9 -2 -1 14 7 12 9 26 6 31 -3 5 -1 19 6 31 8 15 8 19 0 15 -10 -6 -15 6
-12 27 0 4 -6 7 -16 7 -14 0 -14 2 2 20 17 19 17 20 -1 21 -17 0 -16 2 4 11
26 13 29 28 5 28 -15 0 -16 2 -3 9 8 6 18 7 22 5 8 -5 11 11 10 58 0 19 3 25
14 21 8 -3 14 -1 14 5 0 6 -5 12 -12 14 -20 7 2 28 30 28 27 1 27 1 -7 19 -27
14 -30 19 -17 24 15 6 15 9 2 36 -18 34 -13 41 28 41 24 0 27 3 16 10 -12 8
-9 10 12 10 l28 0 -22 22 c-12 13 -33 31 -47 40 l-26 18 43 0 c24 0 53 5 64
11 19 10 18 12 -19 29 -50 22 -62 39 -25 33 l27 -4 -25 15 c-14 8 -19 15 -12
16 17 0 15 29 -3 36 -28 11 -16 51 33 105 29 33 40 50 27 45 -18 -6 -17 -5 3
17 13 13 22 28 20 33 -1 5 3 19 10 32 7 12 11 26 8 31 -3 5 1 14 9 21 8 7 12
16 9 21 -3 5 2 19 10 31 20 28 20 38 1 38 -12 0 -13 4 -6 19 6 10 7 21 4 25
-3 3 2 15 12 26 10 11 15 20 11 20 -3 0 1 11 10 25 12 18 13 25 4 25 -10 0
-10 3 0 15 7 8 9 15 5 15 -4 0 -2 7 5 15 7 9 10 18 7 22 -4 3 -1 13 6 21 10
13 9 15 -6 9 -10 -4 -16 -3 -12 2 3 5 1 12 -5 16 -6 4 -7 12 -3 18 4 7 8 19 8
27 0 8 7 26 14 39 8 14 9 21 2 17 -14 -9 -14 7 0 21 5 5 12 27 14 47 2 21 11
46 20 56 9 10 14 24 10 29 -3 6 0 11 7 11 10 0 9 3 -2 11 -11 8 -12 12 -2 16
6 2 12 15 12 28 0 13 5 27 10 30 6 3 10 14 10 25 0 10 14 44 30 75 21 39 25
53 13 44 -14 -11 -13 -7 4 23 18 31 19 36 5 31 -11 -4 -6 6 12 25 17 18 26 32
22 32 -4 0 2 13 13 29 23 32 27 46 10 35 -17 -10 21 57 58 103 19 23 48 46 65
52 37 13 49 7 18 -9 -12 -6 -19 -14 -17 -17 3 -3 -8 -23 -24 -46 -29 -40 -37
-71 -21 -81 5 -3 43 17 84 44 42 26 79 46 82 43 2 -3 21 7 41 22 19 15 38 25
42 22 3 -4 14 -2 25 4 11 6 32 12 46 14 15 2 51 9 81 14 68 14 71 13 41 -5
l-25 -15 30 5 c72 12 129 16 110 7 -41 -18 47 -24 106 -7 30 9 102 18 160 21
57 2 127 11 154 20 28 8 65 18 83 20 18 3 60 19 93 36 34 16 58 25 54 19 -4
-6 12 -2 35 10 23 12 44 19 47 16 3 -3 26 6 52 20 39 22 42 23 22 5 -13 -12
-22 -23 -20 -25 7 -7 113 15 141 30 15 8 35 14 45 14 10 0 40 16 67 35 27 19
53 35 58 35 4 0 -12 -26 -36 -57 -41 -54 -97 -99 -108 -88 -3 3 -25 -3 -49
-14 -24 -11 -66 -22 -94 -26 l-50 -6 24 20 c30 27 18 27 -27 -1 -20 -12 -32
-16 -28 -9 5 7 -15 0 -44 -14 -29 -14 -49 -21 -45 -15 4 6 -22 -3 -57 -21 -34
-18 -74 -33 -88 -35 -14 -2 -54 -11 -90 -22 -74 -22 -173 -35 -166 -23 7 11
-78 2 -134 -14 -76 -22 -95 -25 -125 -16 -17 5 -22 10 -13 10 9 1 19 5 22 9 3
5 -18 5 -47 1 -29 -4 -61 -8 -72 -8 -17 -1 -18 1 -5 10 11 8 1 8 -35 3 -27 -4
-62 -8 -76 -9 -14 -2 -36 -8 -49 -15 -18 -10 -21 -9 -15 1 9 14 -5 7 -50 -26
-46 -33 -59 -40 -51 -26 4 6 -28 -11 -71 -39 -82 -53 -104 -61 -82 -32 7 9 -1
4 -19 -12 -30 -28 -44 -55 -21 -41 6 4 0 -12 -12 -36 -17 -34 -18 -41 -5 -30
12 10 10 0 -9 -40 -14 -30 -25 -64 -25 -76 0 -12 -4 -24 -9 -27 -12 -8 -2 -42
16 -58 25 -20 124 -48 173 -48 37 0 51 -6 83 -35 44 -40 87 -117 87 -154 0
-34 17 -51 49 -51 45 0 48 9 48 120 -1 88 2 112 21 150 26 56 89 125 166 184
55 43 60 44 85 32 38 -20 245 -205 251 -224 3 -9 13 -29 24 -45 14 -21 17 -36
11 -65 -4 -20 -8 -50 -9 -66 -1 -27 3 -31 38 -38 30 -6 43 -5 55 6 16 16 44
171 36 197 -3 9 1 22 10 29 8 7 15 21 15 32 0 30 25 69 74 117 45 43 49 45
139 56 84 11 95 10 129 -7 49 -24 63 -51 48 -89 -10 -23 -10 -32 0 -44 32 -38
80 2 120 101 16 38 41 74 74 107 62 59 79 69 109 62 15 -4 35 3 62 21 31 21
43 24 57 15 10 -6 31 -11 48 -11 38 0 70 -31 70 -69 0 -38 19 -91 33 -92 32
-3 55 5 80 29 27 25 28 31 22 80 -4 34 -2 65 5 83 10 23 10 32 0 44 -11 13 -9
19 8 38 11 12 25 41 31 64 20 75 117 181 143 155 29 -29 99 5 78 38 -5 8 -10
21 -10 28 0 18 24 4 135 -76 50 -36 104 -70 120 -78 17 -7 39 -22 50 -34 24
-27 67 -50 93 -50 33 0 55 35 48 75 -3 19 -9 51 -12 71 -7 40 17 115 47 145
16 16 23 17 46 8 58 -23 105 -27 154 -13 27 8 65 14 86 14 21 -1 91 2 156 6
l117 7 -2 73 c-2 51 1 77 11 86 11 11 12 9 6 -10 -3 -12 -3 -48 1 -80 6 -46 9
-52 15 -32 6 22 7 21 8 -11 1 -22 7 -39 15 -42 19 -8 32 -127 19 -184 -11 -47
-8 -57 7 -20 6 15 7 1 5 -45 -2 -39 1 -66 6 -62 12 7 11 -3 -1 -27 -8 -14 -7
-19 1 -19 9 0 9 -3 0 -14 -9 -11 -9 -15 1 -18 10 -4 12 -36 10 -139 -3 -155
-4 -151 2 -249 3 -47 -1 -93 -9 -123 -8 -26 -11 -46 -7 -43 4 2 7 -39 6 -92 0
-53 5 -115 12 -139 14 -45 12 -127 -5 -190 -5 -21 -8 -92 -6 -158 1 -66 -1
-139 -5 -162 -5 -28 -4 -40 3 -36 7 4 8 -17 2 -63 -4 -38 -6 -92 -6 -119 1
-28 -5 -69 -13 -93 -9 -24 -11 -40 -6 -37 12 8 12 -1 0 -45 -5 -20 -12 -60
-14 -90 -7 -80 -13 -117 -26 -141 -8 -15 -9 -19 -1 -15 14 9 14 7 -5 -45 -9
-24 -17 -53 -18 -64 -2 -11 -6 -31 -11 -44 -5 -15 -4 -21 3 -17 20 12 -7 -57
-39 -101 -16 -24 -26 -43 -20 -43 12 0 -11 -70 -39 -118 -24 -41 -25 -49 -3
-31 14 13 14 10 -1 -20 -16 -30 -16 -33 -2 -28 9 4 16 4 16 0 0 -3 -25 -54
-56 -112 -53 -100 -54 -104 -24 -76 l32 30 -16 -33 c-9 -18 -35 -46 -58 -62
-44 -32 -44 -36 -3 -20 25 9 24 7 -17 -51 -63 -90 -159 -174 -247 -216 -116
-54 -136 -80 -83 -106 36 -19 130 -29 152 -17 10 6 21 23 25 39 12 54 68 89
180 110 87 17 109 28 124 61 7 17 19 36 26 43 7 8 20 36 28 63 l15 49 -5 -45
c-15 -134 -36 -158 -170 -200 -104 -32 -141 -58 -162 -112 -25 -67 22 -83 208
-74 242 12 340 35 418 98 21 17 53 37 71 45 32 13 33 16 27 56 -17 109 -17
112 -6 97 9 -12 11 -10 11 13 0 15 4 27 9 27 5 0 11 18 15 40 6 42 76 224 82
217 2 -2 -5 -33 -15 -70 -54 -188 -32 -265 96 -331 61 -31 63 -25 29 101 -21
77 -20 286 1 243 12 -23 12 -22 7 15 -4 31 -3 36 6 25 8 -11 9 15 4 100 -4 82
-3 111 5 100 16 -23 14 26 -3 84 -12 41 -12 45 0 35 20 -17 18 -5 -12 54 -19
36 -22 47 -10 38 26 -22 28 -9 11 63 -18 81 -20 119 -4 96 8 -11 9 -6 5 20
-23 143 -17 222 23 297 25 47 41 93 41 117 0 14 4 26 8 26 9 0 29 69 37 134 5
35 9 45 16 35 7 -11 9 -10 9 5 0 11 4 33 9 50 6 17 17 64 26 105 9 41 23 84
31 95 8 11 14 30 14 41 0 11 9 34 20 50 11 17 20 37 20 46 0 9 7 30 15 45 8
16 15 37 15 47 0 9 5 17 10 17 6 0 10 7 10 15 0 8 5 15 10 15 6 0 10 12 10 28
1 15 7 38 15 52 8 14 15 39 15 55 0 17 9 63 20 104 11 41 20 90 20 108 0 18 9
50 20 70 11 21 20 48 20 60 0 13 5 23 10 23 6 0 10 8 10 18 0 21 24 73 50 112
10 14 21 39 24 57 4 17 14 37 22 44 8 6 19 32 26 56 7 31 13 41 19 31 6 -9 9
-1 10 22 0 19 5 46 9 60 l8 25 1 -27 c2 -42 18 -42 26 -1 3 21 15 54 26 73
l20 35 -6 -35 c-5 -30 -1 -27 24 25 35 73 60 107 61 85 1 -8 10 5 21 29 21 47
37 52 19 7 -5 -15 -6 -25 -1 -22 7 5 39 86 58 146 4 13 5 13 13 0 7 -11 10 -7
10 15 0 17 9 48 19 70 17 36 20 37 21 15 1 -16 8 -2 21 40 12 36 25 70 30 75
7 7 8 3 4 -10 -7 -26 16 22 54 108 17 38 34 66 39 63 13 -8 52 66 78 148 13
39 23 65 24 59 0 -7 4 -13 9 -13 4 0 11 26 14 58 2 31 11 70 18 86 l14 29 5
-24 c5 -18 11 -4 25 56 18 75 19 78 26 45 l6 -35 2 36 c1 36 18 139 28 173 4
15 7 16 14 5 6 -9 9 1 9 31 0 60 19 91 21 35 2 -46 5 -34 14 48 4 31 10 55 15
52 4 -3 14 28 21 67 l14 73 5 -55 5 -55 7 55 c4 30 11 91 15 135 6 67 8 74 14
45 4 -24 7 -7 8 54 1 81 2 88 16 70 14 -18 14 -18 8 3 -3 13 -2 53 3 90 l8 68
7 -45 c5 -27 6 8 5 87 -2 115 -1 130 11 115 13 -15 14 -6 8 68 -3 47 -8 106
-10 132 -1 25 -6 52 -11 60 -5 9 -2 9 11 -2 17 -14 17 -13 10 10 -32 99 -45
182 -25 150 14 -22 12 -7 -5 33 -18 44 -19 50 -3 41 8 -5 9 -2 4 12 -9 24 -46
175 -46 189 0 6 5 3 10 -5 14 -20 3 30 -21 95 -18 50 -18 50 1 25 11 -14 20
-29 20 -34 0 -5 3 -7 6 -3 4 3 -12 38 -35 77 -22 40 -41 76 -41 82 0 6 -10 27
-22 46 -12 20 -16 32 -8 27 13 -8 -35 83 -72 137 -11 16 -17 32 -14 37 6 9
-18 45 -68 100 -25 27 -27 33 -11 27 16 -5 15 -2 -6 17 -25 23 -27 31 -31 133
-4 101 -24 187 -35 156 -3 -7 -14 5 -25 28 -11 22 -34 50 -50 61 l-30 22 13
-21 c20 -33 7 -34 -55 -7 l-57 25 7 38 c4 20 15 61 25 91 23 65 23 65 4 57
-19 -7 -19 -1 1 30 20 30 61 52 117 64 l42 8 -35 1 c-33 2 -34 2 -16 16 27 20
164 20 212 0 19 -8 32 -10 29 -5 -21 34 105 -38 149 -84 l38 -41 -21 42 c-11
23 -21 50 -21 60 0 10 9 0 19 -22 10 -22 31 -51 47 -65 16 -14 24 -18 18 -10
-6 8 -25 42 -43 75 -22 40 -26 52 -12 36 30 -34 26 -16 -9 34 -76 110 -173
167 -300 173 -60 4 -79 7 -65 14 13 5 -2 6 -40 3 -79 -7 -134 -35 -211 -108
-68 -63 -77 -64 -43 -7 l21 35 -36 -35 c-20 -19 -46 -54 -57 -78 -19 -39 -21
-56 -16 -148 l5 -104 -29 20 c-15 12 -41 36 -56 54 -15 18 -42 41 -60 50 -17
9 -35 21 -39 27 -5 8 -1 8 14 0 11 -6 24 -11 29 -11 4 0 -30 23 -77 50 -106
63 -135 90 -67 61 78 -34 68 -24 -28 27 -87 46 -198 122 -191 130 2 2 21 -4
42 -13 76 -33 90 -37 78 -25 -6 6 -46 26 -90 45 -89 39 -86 45 7 15 115 -35
79 -7 -51 40 l-75 28 60 7 c93 10 96 13 15 14 -119 2 -123 21 -5 21 97 0 292
24 304 36 3 4 -7 4 -24 1 -58 -12 -261 -28 -305 -25 l-45 3 53 12 c52 13 149
57 187 87 11 8 -18 -3 -64 -26 -76 -38 -92 -42 -170 -44 -83 -3 -84 -3 -32 7
74 13 76 19 5 20 -42 0 -53 3 -39 9 13 6 -12 9 -75 10 -91 2 -98 15 -10 20 47
2 30 7 -55 15 l-69 7 69 22 c65 21 155 62 155 70 0 2 -33 -9 -74 -25 -73 -28
-259 -59 -273 -46 -11 12 4 19 84 44 l78 23 -58 -6 c-32 -3 -84 -14 -115 -25
-43 -14 -52 -15 -38 -4 33 25 117 52 196 64 125 18 129 20 35 16 -58 -2 -111
-11 -149 -24 -80 -29 -81 -27 -6 18 36 22 74 50 85 62 16 18 11 17 -25 -8 -63
-42 -97 -58 -160 -77 -47 -13 -52 -13 -36 -1 24 18 8 20 -47 4 -52 -14 -58 -5
-13 22 41 24 43 35 2 20 -41 -16 -31 1 24 38 28 19 50 36 50 38 0 5 -84 -40
-165 -88 -30 -18 -37 -19 -26 -6 13 16 12 17 -13 7 -56 -21 -59 -9 -6 21 30
16 62 37 70 46 13 14 11 14 -13 -1 -34 -21 -151 -66 -172 -66 -10 0 -3 11 17
30 18 16 27 30 20 30 -7 0 -10 4 -7 10 3 5 -16 0 -42 -11 -26 -12 -61 -25 -78
-29 -16 -4 -39 -11 -50 -16 -19 -8 -20 -7 -2 19 l17 26 -37 -25 c-20 -13 -43
-22 -51 -19 -7 3 -19 5 -25 5 -7 0 -1 9 13 20 l25 20 -38 -15 c-35 -15 -62
-13 -54 3 2 4 1 30 -3 57 l-7 50 -4 -60z m306 -60 c-16 -13 -34 -24 -40 -24
-5 0 4 11 20 24 17 14 35 25 40 25 6 0 -3 -11 -20 -25z m-3595 -3491 c30 -31
46 -52 34 -46 -18 9 -102 102 -92 102 2 0 28 -25 58 -56z m60 -89 c19 -19 29
-35 24 -35 -6 0 -25 16 -44 35 -19 19 -29 35 -24 35 6 0 25 -16 44 -35z m44
-83 c4 -8 1 -10 -7 -6 -22 13 -47 37 -47 46 0 12 48 -23 54 -40z m21 -52 c45
-47 40 -69 -6 -24 -21 21 -39 42 -39 46 0 16 17 8 45 -22z m3280 -20 c4 -22
10 -42 14 -45 5 -2 14 -25 21 -50 7 -25 16 -45 21 -45 4 0 20 -20 34 -44 14
-24 34 -50 43 -58 16 -12 16 -11 2 6 -8 11 -10 17 -3 13 27 -17 83 -118 92
-168 6 -30 13 -66 17 -81 3 -15 3 -40 -1 -55 -9 -36 -20 -17 -34 60 -10 58
-64 152 -81 142 -4 -3 -23 19 -41 48 -18 28 -38 55 -45 59 -6 4 -17 28 -24 53
-7 25 -16 45 -20 45 -4 0 -10 18 -13 41 -3 22 -8 43 -11 47 -7 7 -108 -40
-184 -85 -99 -60 -131 -37 -45 32 56 45 231 137 245 129 3 -2 9 -22 13 -44z
m-3228 -106 c2 -20 11 -50 19 -66 17 -33 15 -41 -9 -32 -19 7 -29 35 -32 81 0
18 -9 40 -18 51 -22 24 -11 36 16 17 12 -9 22 -28 24 -51z m2909 -90 c-22 -16
-70 -19 -61 -4 7 11 67 29 75 23 3 -3 -4 -11 -14 -19z m-2875 -66 c11 -22 18
-43 15 -46 -3 -3 -6 -1 -6 4 0 6 -7 19 -15 30 -14 18 -14 17 -5 -10 9 -26 9
-27 -5 -16 -10 8 -15 9 -15 2 0 -6 9 -16 20 -22 21 -11 29 -36 8 -25 -7 4 -2
-3 11 -14 13 -12 19 -21 14 -21 -12 0 -15 -50 -4 -64 6 -7 15 -25 21 -41 l11
-29 -22 19 c-22 20 -22 20 -14 0 5 -11 8 -31 7 -45 -3 -69 -2 -135 3 -154 6
-21 6 -21 -11 -1 -16 20 -16 19 -8 -5 4 -14 6 -32 5 -40 -1 -8 -2 -31 -1 -50
0 -26 -3 -31 -10 -20 -7 11 -10 7 -10 -18 0 -49 21 -123 37 -129 20 -8 -4 -33
-32 -33 -37 0 -55 31 -61 106 -4 53 -3 66 6 54 9 -12 11 -9 7 18 -2 17 0 32 4
32 4 0 6 19 4 42 -4 35 -3 39 8 24 10 -13 11 0 9 71 -2 66 0 84 8 73 9 -12 10
-11 6 8 -19 73 -19 69 -2 48 16 -20 16 -20 16 0 0 11 -7 29 -15 41 -16 23 -17
73 -1 73 5 0 2 8 -6 18 -8 9 -14 26 -13 37 0 11 -3 30 -7 43 -5 15 -4 21 2 17
13 -8 13 11 0 36 -12 21 -4 43 11 33 5 -3 19 -23 30 -46z m2924 33 l40 -9 -35
-2 c-66 -5 -67 -5 -125 -30 -16 -7 -14 -9 15 -10 19 -1 44 -6 55 -11 15 -7 11
-8 -17 -5 -41 5 -63 -10 -26 -17 13 -2 -3 -5 -36 -6 -56 -1 -58 0 -52 22 3 12
6 27 6 34 0 7 22 15 53 19 43 6 48 9 27 15 -37 10 43 10 95 0z m-215 -82 c11
-19 24 -139 15 -139 -2 0 -17 28 -34 63 -33 68 -41 105 -16 71 14 -19 14 -18
15 4 0 27 6 28 20 1z m-137 -36 c-3 -21 -10 -40 -15 -41 -5 -2 -27 -39 -48
-83 -22 -43 -43 -79 -46 -79 -3 0 -4 6 -1 13 2 6 8 23 12 37 7 24 7 24 -9 5
l-16 -20 7 20 c3 11 -18 -10 -47 -47 -30 -37 -56 -65 -58 -63 -3 3 1 11 8 20
7 9 11 18 8 20 -5 6 -78 -70 -116 -120 l-23 -30 21 43 c11 23 18 42 15 42 -11
0 59 92 88 116 16 13 33 22 37 19 5 -3 26 15 46 39 39 47 58 51 48 10 -11 -45
6 -24 46 56 22 44 42 80 44 80 3 0 2 -17 -1 -37z m86 -24 c7 -16 10 -33 7 -36
-3 -4 -6 1 -6 11 0 9 -4 15 -9 12 -5 -3 -12 1 -15 10 -17 43 4 46 23 3z m-5
-73 c10 -15 16 -29 13 -32 -3 -3 -13 8 -22 25 -21 42 -29 39 -22 -9 3 -22 4
-40 2 -40 -1 0 -14 17 -28 39 -23 35 -25 43 -15 75 l11 36 21 -34 c12 -19 29
-46 40 -60z m-98 -42 c-4 -14 -9 -24 -12 -21 -3 2 -2 17 2 31 3 15 9 25 11 22
3 -3 2 -17 -1 -32z m-266 -71 c0 -9 -36 -59 -47 -66 -8 -5 -10 -13 -7 -19 4
-7 2 -8 -4 -4 -7 4 -31 -6 -55 -23 -37 -25 -45 -27 -53 -14 -7 12 -21 1 -73
-57 -67 -75 -110 -108 -174 -135 -36 -15 -35 -13 31 52 37 38 84 82 103 98 19
17 54 53 79 81 25 27 42 46 38 40 -12 -16 -9 -28 5 -19 6 4 17 8 24 9 6 1 31
16 55 32 35 25 78 38 78 25z m-348 -166 c-12 -13 -22 -27 -22 -33 0 -5 -13
-18 -29 -29 -34 -22 -34 -32 1 -15 18 9 17 6 -7 -14 -16 -14 -34 -26 -38 -26
-5 0 -42 -16 -83 -34 -41 -19 -72 -30 -68 -24 12 19 -40 -3 -79 -34 l-39 -30
17 32 c9 18 28 44 41 56 13 13 20 24 17 24 -3 0 0 7 7 15 7 9 15 13 18 11 2
-3 14 0 26 6 19 10 20 10 7 -5 -17 -21 174 67 214 99 38 30 44 30 17 1z
m-1832 -232 c0 -7 -61 -37 -66 -32 -3 2 10 12 28 20 37 19 38 19 38 12z m-35
-50 c-38 -16 -137 -28 -111 -13 10 6 42 14 70 18 71 10 75 10 41 -5z m-85 -45
c-20 -13 -57 -13 -44 -1 10 10 46 19 54 14 2 -2 -2 -8 -10 -13z m-1830 -24 c0
-8 -106 -83 -125 -89 -19 -6 -19 -6 -1 6 10 7 41 29 70 49 53 39 56 40 56 34z
m-80 -90 c0 -6 -96 -76 -104 -76 -14 0 6 19 51 49 47 31 53 34 53 27z m-84
-111 c-34 -41 -46 -66 -51 -102 -9 -59 -40 -115 -94 -167 -22 -22 -38 -42 -36
-46 2 -3 -21 -18 -51 -33 -43 -21 -52 -23 -43 -9 6 9 26 28 44 42 18 14 31 27
29 29 -2 2 25 34 60 72 56 59 66 75 76 126 10 49 19 65 57 101 25 23 47 42 50
42 2 0 -17 -25 -41 -55z m-216 -395 c0 -5 -5 -10 -11 -10 -5 0 -7 5 -4 10 3 6
8 10 11 10 2 0 4 -4 4 -10z m-1715 -45 c-9 -20 -18 -35 -21 -33 -2 3 3 22 11
43 9 20 18 35 21 33 2 -3 -3 -22 -11 -43z m39 6 c-22 -21 -27 -21 -18 3 3 9
13 16 22 16 13 0 12 -3 -4 -19z m-94 -8 c-1 -17 -51 -64 -70 -66 -11 -1 -22
-8 -25 -17 -3 -9 -16 -31 -29 -49 -19 -25 -25 -28 -30 -16 -3 9 -2 24 3 33 15
28 59 64 70 58 5 -4 18 7 27 23 10 17 21 28 25 25 4 -2 10 0 14 6 7 12 15 13
15 3z m20 -18 c0 -8 -14 -29 -30 -47 l-31 -33 28 47 c31 52 33 54 33 33z
m-3006 -10 c-10 -8 -23 -14 -29 -14 -5 0 -1 6 9 14 11 8 24 15 30 15 5 0 1 -7
-10 -15z m291 -55 c-3 -5 -11 -10 -16 -10 -6 0 -7 5 -4 10 3 6 11 10 16 10 6
0 7 -4 4 -10z m2514 -66 c-11 -23 -33 -56 -49 -74 -17 -18 -30 -35 -30 -39 0
-4 -21 -24 -46 -45 -38 -32 -44 -35 -34 -15 6 13 -16 -5 -50 -41 -33 -36 -56
-54 -49 -41 13 27 6 25 -51 -19 -50 -38 -65 -46 -55 -30 6 10 4 11 -6 4 -8 -4
-20 -9 -28 -10 -7 -2 -23 -11 -35 -22 -38 -35 -52 -36 -21 -2 l30 33 -32 -21
c-40 -28 -134 -72 -153 -72 -12 0 -12 2 -2 9 8 4 12 11 10 15 -6 12 144 104
165 101 10 -3 38 8 61 24 67 46 70 47 62 25 -8 -20 -5 -18 83 61 32 29 33 29
21 5 -10 -20 -4 -17 29 15 22 21 41 35 41 30 0 -5 18 16 40 45 22 29 40 50 40
44 0 -5 11 7 24 27 14 20 31 36 39 36 12 0 11 -8 -4 -43z m-1589 -117 c0 -2
-10 -12 -22 -23 l-23 -19 19 23 c18 21 26 27 26 19z m917 -160 c-46 -30 -50
-37 -12 -21 66 26 71 27 41 6 -16 -11 -34 -28 -39 -37 -8 -14 -6 -16 14 -10
24 7 24 7 -1 -11 -14 -9 -38 -29 -54 -43 -27 -24 -28 -25 -17 -3 14 27 -3 30
-37 6 -36 -25 -25 -2 15 33 l38 33 -37 -15 c-21 -9 -38 -11 -38 -6 0 11 62 51
105 68 39 15 45 15 22 0z m158 -13 c-30 -25 -117 -74 -132 -74 -10 0 60 48
112 77 52 29 57 28 20 -3z m-295 -49 c0 -8 -73 -36 -78 -30 -3 2 10 11 29 19
36 16 49 19 49 11z m531 -1406 c-6 -24 -9 -28 -10 -12 -1 24 9 56 16 50 2 -3
0 -20 -6 -38z m-1083 -6 c-10 -2 -26 -2 -35 0 -10 3 -2 5 17 5 19 0 27 -2 18
-5z m1038 -38 c-9 -9 -16 -13 -16 -8 0 12 22 34 28 28 2 -2 -3 -11 -12 -20z
m-915 -60 c45 -35 45 -35 104 -24 77 14 128 1 181 -46 l39 -35 -60 36 c-60 36
-60 36 -149 30 l-89 -6 -39 36 c-30 27 -45 34 -62 29 -11 -4 -34 -9 -51 -11
-29 -4 -29 -4 5 10 55 21 73 19 121 -19z m-47 -85 c36 -28 46 -30 122 -30 61
0 104 -7 164 -26 98 -31 102 -42 6 -14 -38 10 -112 22 -166 26 -91 6 -101 9
-140 40 -53 42 -40 45 14 4z m-113 -119 c59 -20 116 -30 189 -35 68 -5 129
-16 173 -31 58 -21 79 -23 151 -18 48 3 90 2 101 -4 13 -8 6 -10 -31 -10 -27
0 -67 -3 -89 -7 -30 -6 -62 -2 -130 18 -59 17 -113 26 -161 26 -71 0 -107 9
-259 64 -97 34 -48 33 56 -3z m316 -136 c30 -21 66 -82 59 -100 -7 -19 -25
-19 -91 0 -47 14 -53 19 -57 46 -9 58 40 88 89 54z m-258 -50 c30 -24 59 -51
63 -60 14 -25 -46 -19 -76 8 -25 22 -62 97 -48 97 4 0 32 -20 61 -45z"/>
<path d="M10496 4137 c3 -10 9 -15 12 -12 3 3 0 11 -7 18 -10 9 -11 8 -5 -6z"/>
<path d="M9567 3933 c-4 -3 -7 -11 -7 -17 0 -6 5 -5 12 2 6 6 9 14 7 17 -3 3
-9 2 -12 -2z"/>
<path d="M3055 2599 c-4 -6 -5 -12 -2 -15 2 -3 7 2 10 11 7 17 1 20 -8 4z"/>
<path d="M8353 8163 c9 -2 23 -2 30 0 6 3 -1 5 -18 5 -16 0 -22 -2 -12 -5z"/>
<path d="M9288 8153 c7 -3 16 -2 19 1 4 3 -2 6 -13 5 -11 0 -14 -3 -6 -6z"/>
<path d="M11188 8003 c6 -2 18 -2 25 0 6 3 1 5 -13 5 -14 0 -19 -2 -12 -5z"/>
<path d="M5099 7113 c-13 -16 -12 -17 4 -4 16 13 21 21 13 21 -2 0 -10 -8 -17
-17z"/>
<path d="M2730 5596 c0 -2 16 -30 35 -62 43 -71 47 -60 5 14 -26 45 -40 62
-40 48z"/>
<path d="M1831 4294 c0 -11 3 -14 6 -6 3 7 2 16 -1 19 -3 4 -6 -2 -5 -13z"/>
<path d="M10490 3669 c-267 -37 -275 -38 -359 -18 -51 12 -55 12 -72 -10 -26
-32 -34 -88 -19 -128 15 -44 6 -94 -25 -127 -33 -36 -72 -34 -125 7 -24 17
-66 45 -94 61 -28 15 -78 48 -111 72 l-59 44 -25 -31 c-23 -29 -27 -31 -75
-25 -36 4 -56 2 -69 -8 -25 -19 -107 -184 -101 -201 3 -7 1 -29 -5 -49 -6 -23
-6 -48 0 -69 15 -53 2 -85 -49 -118 -25 -16 -58 -29 -73 -29 -24 0 -27 -4 -30
-37 -2 -21 -3 -56 -1 -77 3 -30 6 -36 14 -25 7 11 9 9 5 -8 -3 -13 -2 -23 3
-23 4 0 7 -6 7 -12 -1 -7 2 -65 7 -128 7 -83 11 -108 17 -90 6 17 8 6 6 -37
-2 -34 1 -59 5 -57 5 3 2 -10 -6 -30 -9 -23 -11 -36 -4 -36 6 0 8 -9 5 -21 -6
-23 11 -79 29 -94 6 -5 17 -28 24 -50 7 -22 17 -45 22 -52 5 -7 6 -18 2 -25
-5 -7 -9 -94 -10 -193 -2 -182 -6 -236 -19 -267 -4 -10 -8 -48 -9 -85 -1 -38
-5 -77 -10 -87 -7 -15 -6 -17 4 -11 10 6 11 3 6 -16 -19 -61 -26 -97 -26 -131
0 -20 -4 -39 -9 -43 -6 -3 -10 -13 -9 -23 0 -9 -3 -28 -7 -42 -3 -14 -8 -41
-10 -60 -1 -19 -7 -47 -13 -61 -6 -15 -8 -29 -5 -33 3 -3 -4 -29 -15 -58 -11
-29 -30 -85 -41 -123 -12 -41 -37 -95 -61 -128 -47 -67 -49 -75 -15 -53 31 21
31 12 0 -43 -29 -51 -30 -52 -10 -45 30 12 15 -29 -25 -68 -41 -38 -36 -47 15
-28 50 19 24 -22 -42 -65 -61 -39 -76 -59 -50 -68 21 -7 -135 -75 -214 -92
-58 -12 -89 -26 -129 -56 -29 -22 -75 -49 -101 -60 -58 -25 -73 -41 -64 -69
10 -31 62 -53 140 -57 l70 -5 -32 21 c-39 24 -43 56 -13 89 29 31 70 46 180
67 181 34 211 53 294 180 45 68 56 92 36 80 -20 -12 -9 48 22 122 28 70 32 74
40 52 6 -13 7 -53 3 -89 -6 -66 -32 -180 -34 -147 -2 29 -16 19 -30 -20 -19
-50 -93 -127 -149 -153 -25 -12 -94 -34 -154 -50 -122 -31 -158 -50 -158 -84
0 -29 39 -47 153 -70 139 -29 301 -20 512 29 55 12 135 26 177 30 111 10 128
25 128 115 0 65 13 101 23 63 3 -10 2 36 -1 103 -5 119 8 233 30 265 7 10 8 6
4 -16 -3 -16 -8 -79 -12 -140 l-7 -110 25 23 c13 12 30 22 36 22 8 0 12 19 13
53 l1 52 8 -53 c4 -29 16 -64 26 -79 32 -50 108 -124 153 -151 42 -25 44 -25
57 -7 19 26 17 68 -5 156 -25 96 -59 172 -104 232 -25 32 -32 47 -22 47 23 0
18 14 -20 64 -40 52 -41 56 -20 56 13 0 15 13 14 73 -4 112 24 409 46 492 8
33 15 76 15 96 0 21 7 44 15 53 9 9 15 34 15 67 0 49 8 91 32 167 5 19 11 44
13 55 5 37 38 161 45 172 4 6 11 24 14 42 4 17 14 37 22 44 8 6 14 18 14 27 0
29 112 210 119 191 5 -17 49 91 47 116 -1 11 -11 38 -21 59 -12 25 -15 41 -8
43 7 3 8 19 3 46 -4 23 -6 105 -5 182 3 176 3 177 13 172 4 -3 5 18 3 45 -2
28 1 48 6 45 5 -3 10 8 11 25 1 16 11 47 22 68 11 22 20 47 20 56 0 20 37 99
58 125 49 59 158 161 193 179 10 6 18 16 16 22 -1 6 16 20 39 32 37 19 40 23
31 44 -11 24 -33 26 -137 11z"/>
<path d="M5422 2529 c-51 -27 -85 -49 -75 -49 34 -1 -16 -29 -64 -36 -24 -3
-50 -13 -58 -20 -9 -10 -39 -14 -92 -14 -53 0 -73 -3 -63 -10 10 -6 -14 -10
-75 -12 -75 -3 -86 -5 -66 -14 23 -10 21 -11 -29 -18 -73 -10 -88 -19 -83 -51
3 -14 9 -25 14 -25 5 0 9 -9 9 -20 0 -11 5 -29 10 -40 6 -11 15 -29 20 -40 6
-11 10 -26 10 -33 0 -8 9 -22 20 -32 11 -10 20 -27 20 -37 0 -16 12 -42 69
-146 8 -14 16 -45 19 -69 2 -24 9 -46 13 -49 5 -3 9 -29 9 -59 0 -30 4 -56 9
-59 12 -8 20 -57 27 -155 3 -49 13 -100 25 -129 17 -39 19 -58 14 -112 -4 -36
-9 -99 -11 -140 -9 -156 -16 -218 -27 -237 -3 -5 -8 -31 -11 -59 -7 -71 -14
-95 -29 -113 -8 -9 -24 -36 -36 -61 -39 -82 -63 -125 -77 -141 -22 -24 -35
-77 -21 -82 7 -2 -4 -12 -23 -22 -19 -10 -54 -31 -78 -47 -23 -16 -71 -36
-105 -44 l-62 -14 55 6 c71 7 204 70 249 118 19 20 32 36 28 36 -4 0 2 18 13
40 11 22 23 40 25 40 3 0 -1 -13 -9 -29 -9 -16 -12 -31 -9 -35 4 -3 -3 -17
-15 -29 -12 -13 -20 -26 -17 -29 8 -8 -95 -85 -137 -102 -19 -8 -66 -18 -104
-22 -85 -8 -114 -24 -114 -64 0 -36 24 -53 105 -75 144 -38 358 -36 445 4 27
12 66 21 98 21 37 0 67 8 100 25 26 14 53 25 59 25 8 0 13 12 13 29 0 16 6 42
14 58 8 15 19 54 25 86 6 37 21 74 41 100 16 22 30 53 30 68 0 14 6 32 14 39
13 10 13 7 4 -22 -14 -46 -28 -86 -44 -132 -8 -21 -13 -40 -11 -42 7 -7 115
91 126 113 7 16 7 31 0 49 -5 15 -7 29 -5 32 6 5 15 -16 47 -117 43 -137 94
-179 125 -104 20 47 23 252 4 298 -7 17 -14 71 -15 120 -2 54 -9 105 -19 127
-9 21 -14 38 -11 38 2 0 0 11 -5 25 -7 17 -5 35 7 62 24 58 10 208 -31 338
-18 57 -16 83 6 128 14 26 28 44 33 40 4 -5 5 0 2 10 -5 13 -1 17 15 17 21 0
21 1 3 13 -10 8 -15 19 -11 25 3 6 2 13 -4 17 -17 10 -11 50 15 107 24 51 32
109 19 142 -3 9 -10 13 -15 10 -5 -3 -9 11 -9 31 0 25 -4 34 -12 29 -8 -5 -10
13 -5 72 5 53 4 74 -3 64 -7 -11 -10 -1 -10 35 0 29 -7 60 -16 73 -10 14 -11
22 -4 22 7 0 0 15 -14 33 -14 17 -34 43 -43 56 -10 13 -27 33 -39 45 -28 28
-50 73 -65 129 -6 26 -16 46 -23 46 -6 -1 -53 -23 -104 -50z"/>
<path d="M4553 320 c-39 -17 -43 -23 -43 -53 0 -58 24 -77 105 -83 l70 -5 -41
18 c-57 25 -74 41 -74 72 0 31 8 44 35 59 34 19 -6 13 -52 -8z"/>
</g>
</svg>
