<?xml version="1.0" standalone="no"?>
<!DOCTYPE svg PUBLIC "-//W3C//DTD SVG 20010904//EN"
 "http://www.w3.org/TR/2001/REC-SVG-20010904/DTD/svg10.dtd">
<svg version="1.0" xmlns="http://www.w3.org/2000/svg"
 width="1280.000000pt" height="792.000000pt" viewBox="0 0 1280.000000 792.000000"
 preserveAspectRatio="xMidYMid meet">
<g transform="translate(0.000000,792.000000) scale(0.100000,-0.100000)"
fill="#000000" stroke="none">
<path d="M10823 7877 c-45 -52 -61 -61 -132 -76 -70 -15 -81 -25 -81 -75 0
-38 -6 -47 -75 -116 -47 -47 -75 -83 -75 -96 0 -48 -16 -48 -273 1 -124 24
-242 31 -306 19 -25 -5 -42 -21 -74 -68 -35 -51 -42 -69 -42 -110 l0 -50 -55
-19 c-119 -41 -223 -58 -391 -64 -186 -6 -314 4 -579 47 -464 76 -588 85 -861
65 -328 -24 -724 -35 -1614 -45 -812 -10 -1093 -18 -1325 -40 -101 -10 -112
-9 -270 24 -273 57 -438 77 -1080 131 -651 54 -900 96 -1248 208 -61 20 -81
22 -125 15 -29 -5 -236 -10 -462 -12 -441 -4 -516 -10 -661 -60 -86 -29 -87
-29 -249 -125 -269 -158 -426 -371 -509 -692 -28 -110 -50 -243 -71 -430 -8
-74 -20 -165 -26 -204 -15 -94 -15 -356 1 -480 7 -55 13 -217 15 -360 1 -161
10 -353 24 -505 43 -498 20 -784 -84 -1030 -57 -136 -142 -529 -165 -765 -6
-60 -15 -143 -20 -183 -13 -96 -13 -227 1 -332 39 -311 56 -399 107 -550 16
-47 39 -105 51 -128 36 -72 42 -136 26 -325 -7 -95 -18 -183 -23 -197 -5 -14
-19 -79 -31 -145 -11 -66 -26 -136 -31 -155 -6 -19 -10 -36 -10 -37 0 -2 14
-3 30 -3 62 0 84 -49 99 -225 9 -104 11 -111 39 -136 64 -58 194 -89 487 -118
110 -11 214 -23 231 -27 38 -7 48 5 40 51 -5 26 -52 82 -206 246 -156 166
-200 218 -200 239 0 61 52 558 75 719 70 480 160 790 326 1128 85 173 141 249
251 340 64 53 183 114 205 106 13 -5 15 -21 11 -107 -4 -93 -10 -117 -78 -316
-70 -206 -74 -219 -78 -325 l-4 -110 62 -124 c114 -230 176 -408 329 -946 99
-349 163 -545 219 -682 19 -45 33 -99 37 -147 l7 -76 43 0 c54 0 72 -21 110
-125 54 -148 166 -202 477 -230 95 -9 197 -21 227 -26 42 -9 55 -8 61 2 11 16
3 35 -19 45 -10 5 -46 43 -80 84 -33 41 -97 118 -141 170 -154 181 -230 338
-230 473 0 56 -7 76 -79 227 -183 382 -254 636 -252 901 1 201 42 356 136 508
39 62 44 79 39 108 -11 56 19 118 72 149 38 22 203 73 296 91 30 6 31 3 43
-92 7 -56 36 -95 70 -95 49 0 81 85 70 186 -9 82 3 94 93 94 93 0 182 -16 212
-38 18 -14 27 -33 32 -69 11 -73 44 -145 65 -141 25 5 52 83 53 153 1 113 57
193 148 210 61 11 91 33 221 160 192 186 233 198 364 106 36 -25 69 -34 237
-65 343 -62 555 -83 951 -93 l266 -6 69 34 c69 33 70 33 254 40 102 4 196 11
210 17 14 5 95 9 180 10 85 0 239 5 341 12 228 15 554 8 654 -14 93 -22 121
-34 139 -61 9 -13 26 -25 38 -27 33 -5 39 -49 33 -248 -9 -274 -8 -411 6 -481
6 -35 11 -131 11 -214 -1 -167 -17 -290 -81 -615 -80 -404 -94 -558 -65 -740
9 -63 18 -151 19 -195 2 -91 13 -119 84 -208 118 -148 308 -218 550 -202 l103
7 -6 32 c-3 17 -58 135 -121 261 -64 127 -122 254 -130 283 -11 43 -12 108 -5
335 12 402 43 582 130 765 44 92 96 172 111 172 21 0 71 -43 80 -69 34 -88
112 -442 188 -852 34 -183 56 -277 71 -301 29 -50 38 -86 56 -218 9 -72 23
-132 37 -160 l22 -45 100 -3 c55 -1 195 1 310 5 l210 8 -3 55 c-7 108 -60 203
-235 417 -83 101 -132 175 -122 185 2 2 -7 44 -20 93 -94 338 -129 758 -90
1054 13 102 13 120 -1 180 -29 127 -33 158 -24 193 16 56 45 75 130 83 373 34
674 191 848 440 23 33 64 89 90 123 77 100 134 203 233 418 50 110 117 240
149 290 62 96 154 272 287 549 98 204 185 351 277 469 43 55 82 120 106 176
59 134 97 207 155 295 59 89 183 215 212 215 10 0 45 -4 77 -10 32 -5 156 -14
275 -20 335 -16 472 -38 602 -96 l59 -27 228 11 c237 12 307 24 392 67 58 29
63 35 89 117 25 79 26 108 6 166 -44 125 -77 165 -360 428 -127 118 -183 195
-210 289 -12 42 -12 74 -2 205 7 85 16 161 21 168 4 7 58 50 120 96 178 133
226 198 226 305 0 55 -2 61 -36 91 -101 88 -319 117 -492 66 -65 -20 -88 -23
-111 -15 -34 12 -91 79 -91 108 0 28 33 56 83 71 76 22 97 38 97 70 0 36 2 35
-261 55 -211 15 -313 32 -411 69 -82 31 -256 56 -390 56 l-106 0 -39 -43z"/>
</g>
</svg>
